<?xml version="1.0" encoding="UTF-8" standalone="no"?><!-- Generator: Gravit.io --><svg xmlns="http://www.w3.org/2000/svg" xmlns:xlink="http://www.w3.org/1999/xlink" style="isolation:isolate" viewBox="0 0 24.869 10.231" width="24.869pt" height="10.231pt"><defs><clipPath id="_clipPath_4KQFhNw4aJ61WRjOWcvXl8cKWjbeVBAB"><rect width="24.869" height="10.231"/></clipPath></defs><g clip-path="url(#_clipPath_4KQFhNw4aJ61WRjOWcvXl8cKWjbeVBAB)"><path d="M 0.802 0 L 16.848 0 C 17.291 0 17.65 0.358 17.65 0.8 L 17.65 0.8 C 17.65 1.242 17.291 1.6 16.848 1.6 L 0.802 1.6 C 0.359 1.6 0 1.242 0 0.8 L 0 0.8 C 0 0.358 0.359 0 0.802 0 Z" style="stroke:none;fill:#FF5050;stroke-miterlimit:10;"/><path d="M 8.022 8.63 L 24.068 8.63 C 24.511 8.63 24.87 8.988 24.87 9.43 L 24.87 9.43 C 24.87 9.872 24.511 10.23 24.068 10.23 L 8.022 10.23 C 7.579 10.23 7.22 9.872 7.22 9.43 L 7.22 9.43 C 7.22 8.988 7.579 8.63 8.022 8.63 Z" style="stroke:none;fill:#FF5050;stroke-miterlimit:10;"/></g></svg>